<svg id="Ebene_1" data-name="Ebene 1" xmlns="http://www.w3.org/2000/svg" xmlns:xlink="http://www.w3.org/1999/xlink" width="124" height="78.06" viewBox="0 0 124 78.06"><defs><style>.cls-1{fill:none;}.cls-12,.cls-2{fill:#fff;}.cls-3{clip-path:url(#clip-path);}.cls-4{fill:#0051a0;}.cls-5{fill:#db0e16;}.cls-6{clip-path:url(#clip-path-2);}.cls-7{fill:#2d3170;}.cls-8{fill:#d61217;}.cls-9{fill:#2e2f72;}.cls-10{fill:#de0c15;}.cls-11{fill:#d81117;}.cls-12{fill-rule:evenodd;}.cls-13{fill:#ffcb00;}</style><clipPath id="clip-path"><polygon class="cls-1" points="23.4 68.84 0.14 63.28 7.98 30.4 31.24 35.95 23.4 68.84 23.4 68.84"/></clipPath><clipPath id="clip-path-2"><polygon class="cls-1" points="61.94 21.3 72.39 0 103.27 14.67 92.81 35.97 61.94 21.3 61.94 21.3"/></clipPath></defs><title>efta-logo</title><polygon class="cls-2" points="23.4 68.84 0.14 63.28 7.98 30.4 31.24 35.95 23.4 68.84 23.4 68.84"/><g class="cls-3"><polygon class="cls-4" points="9.44 65.85 -0.24 63.54 1.93 54.44 11.61 56.75 9.44 65.85 9.44 65.85"/><polygon class="cls-4" points="23.55 69.22 13.86 66.91 16.04 57.81 25.72 60.12 23.55 69.22 23.55 69.22"/><polygon class="cls-4" points="12.71 52.56 3.02 50.25 7.91 29.6 17.59 31.91 12.71 52.56 12.71 52.56"/><polygon class="cls-4" points="26.81 55.93 17.13 53.62 22.01 32.97 31.69 35.28 26.81 55.93 26.81 55.93"/><polygon class="cls-5" points="2.19 53.37 2.7 51.24 26.48 56.92 25.97 59.05 2.19 53.37 2.19 53.37"/><polygon class="cls-5" points="18.77 32.19 20.9 32.7 12.85 66.64 10.71 66.13 18.77 32.19 18.77 32.19"/></g><polygon class="cls-2" points="61.94 21.3 72.39 0 103.27 14.67 92.81 35.97 61.94 21.3 61.94 21.3"/><g class="cls-6"><polygon class="cls-7" points="98.82 24.5 97.86 26.45 66.36 11.51 67.31 9.56 98.82 24.5 98.82 24.5"/><polygon class="cls-8" points="67.86 8.49 72.21 -0.36 80.85 3.74 76.5 12.59 67.86 8.49 67.86 8.49"/><polygon class="cls-8" points="61.52 21.38 65.87 12.53 74.51 16.63 70.16 25.48 61.52 21.38 61.52 21.38"/><polygon class="cls-8" points="80.46 14.47 84.81 5.62 103.7 14.57 99.35 23.42 80.46 14.47 80.46 14.47"/><polygon class="cls-8" points="74.13 27.36 78.48 18.51 97.36 27.47 93.01 36.32 74.13 27.36 74.13 27.36"/><polygon class="cls-7" points="81.83 4.21 83.82 5.15 73.14 26.89 71.15 25.95 81.83 4.21 81.83 4.21"/></g><rect y="74.52" width="124" height="1.16"/><rect y="77.48" width="124" height="0.58"/><polygon points="34.63 60.19 45.28 60.19 45.28 57.41 34.63 57.41 34.63 52.3 46.14 52.3 46.14 49.36 30.93 49.36 30.93 68.84 46.35 68.84 46.35 65.89 34.63 65.89 34.63 60.19"/><polygon points="48.59 68.84 52.2 68.84 52.2 60.21 61.52 60.21 61.52 57.44 52.2 57.44 52.2 52.35 62.81 52.35 62.81 49.41 48.59 49.41 48.59 68.84"/><polygon points="81.39 49.51 64.92 49.51 64.92 52.43 71.36 52.43 71.36 68.84 74.92 68.84 74.92 52.43 81.39 52.43 81.39 49.51"/><path d="M90.24,49.72H86.83l-7,19.12H83.1l1.72-5.06h7.33l1.72,5.06h3.44ZM85.69,61.24,88.47,53h.08l2.75,8.22Z"/><polygon class="cls-9" points="31.34 35.8 20.96 14.59 51.42 0.11 61.79 21.32 31.34 35.8 31.34 35.8"/><polygon class="cls-10" points="31.34 35.8 26.15 25.19 56.6 10.72 61.79 21.32 31.34 35.8 31.34 35.8"/><path class="cls-11" d="M115.76,30.69,92.85,36l7.76,32.8,22.91-5.35-7.76-32.8Z"/><polygon class="cls-12" points="116.47 45.63 110.29 47.07 108.84 40.89 103.75 42.08 105.19 48.26 99.02 49.7 100.2 54.79 106.38 53.35 107.83 59.53 112.92 58.34 111.48 52.16 117.66 50.72 116.47 45.63"/><polygon class="cls-13" points="27.9 14.4 27.57 14.26 27.52 14.58 27.86 14.79 27.9 14.4"/><path class="cls-13" d="M26.58,19a.16.16,0,1,0-.15-.29.15.15,0,0,0-.07.21A.17.17,0,0,0,26.58,19Z"/><path class="cls-13" d="M26.4,18.45a.16.16,0,1,0-.07.22A.16.16,0,0,0,26.4,18.45Z"/><path class="cls-13" d="M26.24,18.17s0,0,0,0a2.62,2.62,0,0,0,.48.58,1.23,1.23,0,0,1,.31-.06,1.79,1.79,0,0,1-.59-.64.69.69,0,0,1,.06-.76,1.51,1.51,0,0,1,.86-.53l.93-.21a.83.83,0,0,0-.07-.13,9,9,0,0,0-.94.2,2.47,2.47,0,0,0-1,.58.87.87,0,0,0-.18.49v0a.16.16,0,1,0-.07.22.14.14,0,0,0,.08-.09,1.12,1.12,0,0,0,.06.23.16.16,0,0,0-.2,0,.17.17,0,0,0-.08.22.16.16,0,0,0,.22.07A.15.15,0,0,0,26.24,18.17Z"/><path class="cls-13" d="M26.08,17.57a.16.16,0,0,0,.08-.21.17.17,0,0,0-.22-.07.15.15,0,0,0-.08.21A.16.16,0,0,0,26.08,17.57Z"/><path class="cls-13" d="M26.29,17.22a.16.16,0,0,0,.08-.21.17.17,0,1,0-.08.21Z"/><path class="cls-13" d="M26.59,17a.16.16,0,0,0,.07-.22.17.17,0,0,0-.22-.07.16.16,0,0,0,.15.29Z"/><path class="cls-13" d="M26.93,16.77a.16.16,0,1,0-.22-.07A.16.16,0,0,0,26.93,16.77Z"/><path class="cls-13" d="M27.28,16.62a.16.16,0,0,0,.08-.22.16.16,0,0,0-.29.15A.15.15,0,0,0,27.28,16.62Z"/><path class="cls-13" d="M27.48,16.2a.16.16,0,1,0,.22.07A.16.16,0,0,0,27.48,16.2Z"/><path class="cls-13" d="M28.36,16.17a.16.16,0,0,0-.22-.07.19.19,0,0,0-.09.15.13.13,0,0,0,0-.06.16.16,0,0,0-.22-.07.15.15,0,0,0-.07.21.16.16,0,0,0,.22.07.13.13,0,0,0,.08-.14s0,0,0,.06a.16.16,0,1,0,.29-.15Z"/><path class="cls-13" d="M28.63,16a.17.17,0,0,0,.22.07.16.16,0,0,0-.15-.29A.16.16,0,0,0,28.63,16Z"/><path class="cls-13" d="M29.11,15.83a.15.15,0,0,0,.07-.21.16.16,0,0,0-.22-.07.15.15,0,0,0-.07.21A.16.16,0,0,0,29.11,15.83Z"/><path class="cls-13" d="M29.37,15.59a.16.16,0,0,0,.08-.21.16.16,0,0,0-.22-.07.16.16,0,0,0-.08.21A.17.17,0,0,0,29.37,15.59Z"/><path class="cls-13" d="M29.67,15.41a.16.16,0,1,0-.22-.07A.17.17,0,0,0,29.67,15.41Z"/><path class="cls-13" d="M30,15.21a.16.16,0,1,0-.22-.07A.16.16,0,0,0,30,15.21Z"/><path class="cls-13" d="M30.32,15A.16.16,0,1,0,30.1,15,.16.16,0,0,0,30.32,15Z"/><path class="cls-13" d="M30.71,15a.16.16,0,0,0,.07-.22.17.17,0,0,0-.22-.07.16.16,0,1,0,.15.29Z"/><path class="cls-13" d="M31.09,15a.17.17,0,0,0,.08-.22.16.16,0,0,0-.22-.07.17.17,0,0,0-.08.22A.17.17,0,0,0,31.09,15Z"/><path class="cls-13" d="M31.46,15.2a.15.15,0,0,0,.07-.21.18.18,0,0,0-.22-.08.16.16,0,0,0,.15.29Z"/><path class="cls-13" d="M31.48,15.42v0a.9.9,0,0,0-.76-.4,2.56,2.56,0,0,0-1.05.45c-.38.3-.73.6-.73.6s.09.15.1.14c.32-.29.7-.58.7-.59a1.57,1.57,0,0,1,.94-.39.71.71,0,0,1,.66.39,1.85,1.85,0,0,1,.19.85.71.71,0,0,1,.23-.21,2.36,2.36,0,0,0-.21-.73l-.06-.11a.16.16,0,0,0,.27-.17.16.16,0,0,0-.22-.07A.15.15,0,0,0,31.48,15.42Z"/><path class="cls-13" d="M31.66,15.75a.17.17,0,0,0,.22.08.16.16,0,1,0-.15-.29A.16.16,0,0,0,31.66,15.75Z"/><path class="cls-13" d="M31.84,15.89a.16.16,0,1,0,.22.07A.16.16,0,0,0,31.84,15.89Z"/><path class="cls-13" d="M29.13,17.27a.15.15,0,0,0,.06-.2A.14.14,0,0,0,29,17a.15.15,0,1,0,.14.26Z"/><path class="cls-13" d="M29,17a.14.14,0,0,0,.06-.18.13.13,0,0,0-.18-.05.12.12,0,0,0-.06.17A.13.13,0,0,0,29,17Z"/><path class="cls-13" d="M28.67,16.67a.12.12,0,1,0,0-.16A.13.13,0,0,0,28.67,16.67Z"/><path class="cls-13" d="M28.59,16.27a.09.09,0,0,0,0,.13.1.1,0,0,0,.13.05.1.1,0,0,0,0-.14A.11.11,0,0,0,28.59,16.27Z"/><path class="cls-13" d="M28.48,16.06a.08.08,0,0,0,0,.11.08.08,0,0,0,.11,0,.08.08,0,0,0,0-.11A.08.08,0,0,0,28.48,16.06Z"/><polygon class="cls-13" points="28.46 14.6 28.15 14.56 28.02 14.84 28.3 14.87 28.46 14.6"/><polygon class="cls-13" points="27.8 14.93 27.48 14.89 27.36 15.17 27.64 15.2 27.8 14.93"/><path class="cls-13" d="M28.16,15.4h0a.32.32,0,0,0-.15.45.34.34,0,0,0,.45.15.33.33,0,0,0,.15-.45.33.33,0,0,0-.43-.16l.06-.28L28,15l-.1.27Z"/><path class="cls-13" d="M27.81,14.94A.12.12,0,0,0,28,15a.12.12,0,0,0,.05-.15.13.13,0,0,0-.16-.05A.12.12,0,0,0,27.81,14.94Z"/><path class="cls-13" d="M29.55,17.17a7.74,7.74,0,0,1-.74-1.05l-.09.06a9.2,9.2,0,0,0,.66,1A.82.82,0,0,1,29.55,17.17Z"/><path class="cls-13" d="M28.88,17.41a8.18,8.18,0,0,0-.43-1.06l-.11,0a7.82,7.82,0,0,1,.43,1.17A.29.29,0,0,1,28.88,17.41Z"/><path class="cls-13" d="M32.49,16.27c-.31-.13-.83.24-.84.23a.57.57,0,0,0-.31.56c-.29-.73-.67-.43-.67-.43-.54.25-.51,1.07-.51,1.06-.51-.7-1-.38-1-.38a.72.72,0,0,0-.3,1s-.64-.44-1.08-.25c0,0-.57.25-.12.89,0,0-.46-.32-.81-.13,0,0-.31.15-.4.42a2.17,2.17,0,0,1,.69.42,3,3,0,0,0,.86.62l0,0-.07-.18.13.14.06-.06L28,20l.13.14h0l.06-.05-.08-.18.13.13h0l.07,0-.07-.17.12.12.07-.05-.06-.16.11.12.1-.06-.07-.18.13.13.08-.05-.07-.17.12.13.09-.06-.07-.18.13.14.08,0L29,19.34l.13.13.06,0-.07-.18.13.14h0l.1-.07-.07-.17.13.14.07,0-.07-.17.13.13.08,0L29.51,19l.13.13.11-.06-.07-.17.14.13.1-.05-.07-.16L30,19h0l.09,0L30,18.74l.13.13h0l.07,0,0-.2.09.16h0l.12-.05,0-.2.1.16h0l.11,0,0-.2.1.16v0l.11-.05,0-.19.09.16.07,0,0-.19.1.16.07,0,0-.19.1.16h0l.12,0,0-.18.1.16h0l.09,0,0-.19.1.16h0l.11,0,0-.19.09.16v0l.08,0,0-.19.1.16v0l.07,0,0-.18.09.16.07,0,0-.17.09.16.08,0L32,18l.09.15.1,0,0-.17.1.16h0a4.23,4.23,0,0,0,0-.94A2.05,2.05,0,0,1,32.49,16.27Zm-4.09,2,.06.15-.15-.15Zm-.25,0,.14.17-.23-.16Zm-.37.17.13.15-.16-.08Zm-.06.13.15.13-.16-.05Zm.17.49-.16,0v-.08Zm-.05-.19-.16-.05v-.09Zm-.48.21.07.12-.16-.13Zm-.75.18.06-.06.19.08Zm.1-.09.08,0,.15.1Zm.16-.06.1,0,.11.13Zm.19,0h.09l.08.12Zm.14.54.12,0c.14,0,.05-.08.05-.08a1.62,1.62,0,0,0-.19-.16,1.26,1.26,0,0,1,.29.08c.1,0,.09,0,.09,0s0-.17,0-.16a1.77,1.77,0,0,0,.4.63A1.64,1.64,0,0,0,27.2,19.6Zm.61-1.2.06-.06.11.15Zm.1-.08.09,0,.13.16Zm.16.6a.43.43,0,0,1,.15,0s.1,0,0-.11l-.15-.18a1.05,1.05,0,0,1,.24.15s.1.07.11-.06,0-.05,0-.1a3.72,3.72,0,0,0,.36.74A1.66,1.66,0,0,0,28.07,18.92Zm1.7-1.35v.15l-.09-.21Zm-.14-.08,0,.16-.12-.19Zm-.17-.06,0,.2-.11-.18Zm-.14,0,.05.2-.13-.17Zm-.12.05.07.21-.15-.16Zm-.12.13.08.2L29,17.68Zm-.16.27.13.19L28.92,18Zm0,.29v-.1l.16.17Zm0-.36,0-.09.09.2Zm.19.27s.41.14.22-.34c.3.42.39,0,.41,0a2,2,0,0,0,.09.92A2.12,2.12,0,0,0,29.15,18.1Zm.74-.27-.05-.22.07.06ZM31.07,17l-.05.16,0-.22Zm-.12-.1,0,.16,0-.19Zm-.16,0,0,.18-.06-.19Zm-.47.59.05-.06,0,.2Zm.07-.21.06-.07v.28Zm.13,0-.05-.2.08,0Zm.12-.34v.19L30.56,17ZM31,18.18a3.64,3.64,0,0,0-.42-.7l.09,0c.12.07.1,0,.11-.05a1.37,1.37,0,0,1,0-.28l.07.22c0,.13.09.06.09.06a.43.43,0,0,1,.12-.11A1.58,1.58,0,0,0,31,18.18Zm.13-.88v-.2l.06,0Zm.92-.84-.07.21V16.5Zm-.14.09,0,.23-.05-.17Zm-.13.11v.2l-.05-.14Zm-.1.12,0,.2-.06-.12ZM32,17.86a1.79,1.79,0,0,0-.3-.67s.08,0,.14.07,0,0,.06-.05a1.45,1.45,0,0,1,.11-.29,1.76,1.76,0,0,0,0,.25s0,.12.09,0l.1-.08A1.65,1.65,0,0,0,32,17.86Zm.12-1.22,0-.2h.08Z"/><path class="cls-13" d="M30.08,17.17l-.58-1.25-.08.09.56,1.2Z"/><path class="cls-13" d="M29.91,17.21l-.54-1.14-.06.1.46,1A.3.3,0,0,0,29.91,17.21Z"/><path class="cls-13" d="M30.3,16.87v0l-.54-1.14-.09.06.57,1.2Z"/><path class="cls-13" d="M30.21,17l-.58-1.23-.08.06.58,1.25A.3.3,0,0,0,30.21,17Z"/><path class="cls-13" d="M31.3,16.55l-.57-1.2h-.11l.59,1.25Z"/><path class="cls-13" d="M31.37,16.41a.22.22,0,0,0,0-.08l-.44-.94a.31.31,0,0,0-.13,0l.53,1.13A.44.44,0,0,0,31.37,16.41Z"/><path class="cls-13" d="M31.3,15.73a.8.8,0,0,0-.26-.3l.35.76A1.53,1.53,0,0,0,31.3,15.73Z"/><path class="cls-13" d="M29.66,17.07l-.38-.81a.49.49,0,0,0,0,.34A1.89,1.89,0,0,0,29.66,17.07Z"/><path class="cls-13" d="M30.91,16.53l-.53-1.13-.1,0,.51,1.07Z"/><path class="cls-13" d="M31.14,16.61l-.59-1.25-.1,0L31,16.57Z"/><path class="cls-13" d="M30.55,16.57l-.48-1-.1.05.5,1Z"/><path class="cls-13" d="M30.72,16.52l-.5-1.06-.09,0,.48,1Z"/><path class="cls-13" d="M30.42,16.68l-.5-1.06-.09.05.52,1.11A.36.36,0,0,1,30.42,16.68Z"/><path class="cls-13" d="M27.34,18.55l-.65-1.21-.07.08.62,1.18A.19.19,0,0,0,27.34,18.55Z"/><path class="cls-13" d="M27.44,18.38l-.62-1.16-.08.07.65,1.21A.33.33,0,0,0,27.44,18.38Z"/><path class="cls-13" d="M27.09,18.57l.08,0-.59-1.1a.67.67,0,0,0-.06.12l.5.92Z"/><path class="cls-13" d="M28.41,18l-.65-1.22-.1,0L28.3,18Z"/><path class="cls-13" d="M28.11,18l.11,0-.63-1.17-.1,0,.6,1.11Z"/><path class="cls-13" d="M28,18l-.57-1.08-.1,0,.56,1Z"/><path class="cls-13" d="M27.65,18.05l-.54-1-.09.05.55,1Z"/><path class="cls-13" d="M28.24,16.83l.42.79a1.85,1.85,0,0,0-.16-.57A.53.53,0,0,0,28.24,16.83Z"/><path class="cls-13" d="M28.66,17.77l-.51-1-.13,0,.6,1.12A.29.29,0,0,0,28.66,17.77Z"/><path class="cls-13" d="M26.59,18.1a1.35,1.35,0,0,0,.31.35l-.4-.74A.61.61,0,0,0,26.59,18.1Z"/><path class="cls-13" d="M27.52,18.17,27,17.12l-.09.06.59,1.1A.41.41,0,0,1,27.52,18.17Z"/><path class="cls-13" d="M28.57,18l-.63-1.17h-.11L28.48,18A.2.2,0,0,0,28.57,18Z"/><path class="cls-13" d="M27.81,18l-.54-1-.1,0,.54,1Z"/></svg>